<svg width="32" height="32" viewBox="0 0 32 32" fill="none" xmlns="http://www.w3.org/2000/svg">
<path fill-rule="evenodd" clip-rule="evenodd" d="M20.1127 4.55634L15.5563 0L11 4.55634H4.55635V11L0 15.5563L4.55635 20.1127V26.5563H11L15.5563 31.1127L20.1127 26.5563H26.5563V20.1127L31.1127 15.5563L26.5563 11V4.55634H20.1127Z" fill="#EADEFC"/>
<path fill-rule="evenodd" clip-rule="evenodd" d="M11.6765 22.5195C14.5124 21.4495 16.5295 18.7103 16.5295 15.5C16.5295 12.2897 14.5124 9.55045 11.6765 8.48049C12.4996 8.16993 13.3918 8 14.3236 8C18.4657 8 21.8236 11.3579 21.8236 15.5C21.8236 19.6421 18.4657 23 14.3236 23C13.3918 23 12.4996 22.8301 11.6765 22.5195Z" fill="#6200EE"/>
</svg>
