<svg width="110" height="110" viewBox="0 0 110 110" fill="none" xmlns="http://www.w3.org/2000/svg">
<path d="M51.6154 0H58.3846V27.9231L55.8462 55H54.1539L51.6154 27.9231V0Z" fill="white"/>
<path d="M51.6154 110H58.3846V82.0769L55.8462 55H54.1539L51.6154 82.0769V110Z" fill="white"/>
<path d="M91.4976 13.7159L96.2842 18.5024L76.5396 38.247L55.5983 55.5983L54.4017 54.4017L71.753 33.4604L91.4976 13.7159Z" fill="white"/>
<path d="M13.7158 91.4976L18.5024 96.2842L38.247 76.5396L55.5983 55.5983L54.4017 54.4017L33.4604 71.753L13.7158 91.4976Z" fill="white"/>
<path d="M110 51.6154L110 58.3846L82.0769 58.3846L55 55.8462L55 54.1538L82.0769 51.6154L110 51.6154Z" fill="white"/>
<path d="M0 51.6154L-1.47946e-07 58.3846L27.9231 58.3846L55 55.8462L55 54.1538L27.9231 51.6154L0 51.6154Z" fill="white"/>
<path d="M96.2841 91.4976L91.4976 96.2842L71.753 76.5396L54.4017 55.5983L55.5983 54.4017L76.5396 71.753L96.2841 91.4976Z" fill="white"/>
<path d="M18.5024 13.7159L13.7158 18.5024L33.4604 38.247L54.4017 55.5983L55.5983 54.4017L38.247 33.4604L18.5024 13.7159Z" fill="white"/>
</svg>
